# xmcd CD database file
#
# Track frame offsets:
#	150
#	9614
#	22536
#	31986
#	46599
#	58412
#	74311
#	88341
#	99013
#	111339
#	122974
#	132892
#
# Disc length: 2038 seconds
#
# Revision: 1
# Processed by: cddbd v1.5.2PL0 Copyright (c) Steve Scherf et al.
# Submitted via: CDex 1.51
#
DISCID=9707f40c
DTITLE=Barrence Whitfield and The Savages - Soul Flowers Of Titan
DYEAR=2018
DGENRE=Rhythm and Blues
TTITLE0=Slowly Losing My Mind
TTITLE1=Pain
TTITLE2=Tall, Black And Bitter
TTITLE3=Tingling
TTITLE4=Sunshine Don't Make The Sun
TTITLE5=I'll Be Home Someday
TTITLE6=Let's Go To Mars
TTITLE7=Adorable
TTITLE8=I Can't Get No Ride
TTITLE9=I'm Gonna Leave You
TTITLE10=Edie Please
TTITLE11=Say What You Want
EXTD=YEAR: 2018
EXTT0=
EXTT1=
EXTT2=
EXTT3=
EXTT4=
EXTT5=
EXTT6=
EXTT7=
EXTT8=
EXTT9=
EXTT10=
EXTT11=
PLAYORDER=
